<svg height="512" viewBox="0 0 58 58" width="512" xmlns="http://www.w3.org/2000/svg"><g id="012---Customer-Message" fill="none" transform="translate(-1)"><path id="Shape" d="m15 34c-.36-.25-12.44-9.3-13.43-8.86-.75-2.61-1.52-10.61 3.88-11.12.32322324-.0316435.60701114-.2284031.75-.52.54-1.08 2.48-3.5 8.88-3.5 0 0 11.06 0 13.07 6 1.0232815 2.9494312 1.1278863 6.1398748.3 9.15z" fill="#805333"/><path id="Shape" d="m44.53 23-7.69 5.89c-.1562874.1240368-.3699223.1472834-.5492301.0597641s-.292409-.2702442-.2907699-.4697641v-5.48l4-1z" fill="#e57e25"/><rect id="Rectangle-path" fill="#f29c1f" height="23" rx="2.07" width="26" x="33"/><path id="Shape" d="m23 37.14v11.86s-1 4-8 4-8-4-8-4v-11.86c.06.06.131.129.2.19 3.162 2.793 3.12 5.67 6.24 5.67h3.12c3.12 0 3.078-2.877 6.24-5.67.069-.061.14-.13.2-.19z" fill="#f9c795"/><path id="Shape" d="m4.06 25.67c-.69596203-.5678802-1.62309654-.7652221-2.49-.53-.01.01-.03.01-.04.02-1.18.56-.03 4.43-.03 4.43.64663409 1.5020075 1.84606611 2.6978591 3.35 3.34h20.3c1.5039339-.6421409 2.7033659-1.8379925 3.35-3.34 0 0 1.15-3.87-.03-4.43-.0053939-.0054305-.0124192-.0089432-.02-.01-.866537-.2504458-1.8008044-.0598553-2.5.51v.01z" fill="#f9c795"/><path id="Shape" d="m39.97 58h-37.97c-.55228475 0-1-.4477153-1-1v-7.48c-.0044215-.4459061.29069212-.8393909.72-.96l5.28-1.56s.9 3.61 7 3.97c3.252.2 7.308-.522 8.78-3.44.0934334-.1676367.1672529-.3454746.22-.53l13.55 4s3.12.9 3.42 7z" fill="#285680"/><path id="Shape" d="m37.97 58h-35.97c-.55228475 0-1-.4477153-1-1v-7.48c-.0044215-.4459061.29069212-.8393909.72-.96l5.28-1.56s.9 3.61 7 3.97c3.252.2 7.308-.522 8.78-3.44.0934334-.1676367.1672529-.3454746.22-.53 4.421 1.31 1.9.447 11.55 4 0 0 3.12.9 3.42 7z" fill="#4482c3"/><g fill="#fac176"><path id="Shape" d="m54 6h-16c-.5522847 0-1-.44771525-1-1s.4477153-1 1-1h16c.5522847 0 1 .44771525 1 1s-.4477153 1-1 1z"/><path id="Shape" d="m54 10h-16c-.5522847 0-1-.44771525-1-1s.4477153-1 1-1h16c.5522847 0 1 .44771525 1 1s-.4477153 1-1 1z"/><path id="Shape" d="m54 14h-16c-.5522847 0-1-.4477153-1-1s.4477153-1 1-1h16c.5522847 0 1 .4477153 1 1s-.4477153 1-1 1z"/><path id="Shape" d="m43 18h-5c-.5522847 0-1-.4477153-1-1s.4477153-1 1-1h5c.5522847 0 1 .4477153 1 1s-.4477153 1-1 1z"/></g><path id="Shape" d="m25.15 32.93c.048 2.654.466 4.913-2.35 7.4-3.162 2.793-3.12 5.67-6.24 5.67h-3.12c-3.12 0-3.078-2.877-6.24-5.67-2.988-2.639-2.34-5.094-2.34-8.09 0-2.07-.62-3.05-.8-6.57 0 0 .75-4.39 3.06-6.71.50085208-.4844684 1.16359188-.7659547 1.86-.79 2.78-.18 10.75-.54 14.02 1.04 0 0 2.17 1.34 2.95 6.45 0 2.74-.857 4.149-.8 7.27z" fill="#fdd7ad"/></g></svg>